<mxfile host="app.diagrams.net" modified="2024-05-03T12:35:11.904Z" agent="Mozilla/5.0 (Windows NT 10.0; Win64; x64) AppleWebKit/537.36 (KHTML, like Gecko) Chrome/124.0.0.0 Safari/537.36" etag="StRIYjKp2xrzaQx-U0u3" version="24.3.1" type="github">
  <diagram id="0mSkkkAGAFYRf9X1eUgo" name="PÃ¡gina-1">
    <mxGraphModel dx="1050" dy="761" grid="1" gridSize="10" guides="1" tooltips="1" connect="1" arrows="1" fold="1" page="1" pageScale="1" pageWidth="827" pageHeight="1169" math="0" shadow="0">
      <root>
        <mxCell id="0" />
        <mxCell id="1" parent="0" />
        <mxCell id="hLHg0ykjS-fBDdhFk4Wv-5" value="" style="edgeStyle=orthogonalEdgeStyle;rounded=0;orthogonalLoop=1;jettySize=auto;html=1;" edge="1" parent="1" source="hLHg0ykjS-fBDdhFk4Wv-1" target="hLHg0ykjS-fBDdhFk4Wv-4">
          <mxGeometry relative="1" as="geometry" />
        </mxCell>
        <mxCell id="hLHg0ykjS-fBDdhFk4Wv-1" value="Proceso calculador_de_hiotenusa" style="ellipse;whiteSpace=wrap;html=1;fillColor=#fff2cc;strokeColor=#d6b656;" vertex="1" parent="1">
          <mxGeometry x="316" y="240" width="196" height="50" as="geometry" />
        </mxCell>
        <mxCell id="hLHg0ykjS-fBDdhFk4Wv-7" value="" style="edgeStyle=orthogonalEdgeStyle;rounded=0;orthogonalLoop=1;jettySize=auto;html=1;" edge="1" parent="1" source="hLHg0ykjS-fBDdhFk4Wv-4" target="hLHg0ykjS-fBDdhFk4Wv-6">
          <mxGeometry relative="1" as="geometry" />
        </mxCell>
        <mxCell id="hLHg0ykjS-fBDdhFk4Wv-4" value="definir a, b, c, h como real" style="whiteSpace=wrap;html=1;fillColor=#ffe6cc;strokeColor=#d79b00;" vertex="1" parent="1">
          <mxGeometry x="336" y="350" width="156" height="25" as="geometry" />
        </mxCell>
        <mxCell id="hLHg0ykjS-fBDdhFk4Wv-9" value="" style="edgeStyle=orthogonalEdgeStyle;rounded=0;orthogonalLoop=1;jettySize=auto;html=1;" edge="1" parent="1" source="hLHg0ykjS-fBDdhFk4Wv-6" target="hLHg0ykjS-fBDdhFk4Wv-8">
          <mxGeometry relative="1" as="geometry" />
        </mxCell>
        <mxCell id="hLHg0ykjS-fBDdhFk4Wv-6" value="&quot;ingresa un cateto&quot;" style="shape=parallelogram;perimeter=parallelogramPerimeter;whiteSpace=wrap;html=1;fixedSize=1;fillColor=#d5e8d4;strokeColor=#82b366;" vertex="1" parent="1">
          <mxGeometry x="351" y="430" width="126" height="32.5" as="geometry" />
        </mxCell>
        <mxCell id="hLHg0ykjS-fBDdhFk4Wv-11" value="" style="edgeStyle=orthogonalEdgeStyle;rounded=0;orthogonalLoop=1;jettySize=auto;html=1;" edge="1" parent="1" source="hLHg0ykjS-fBDdhFk4Wv-8" target="hLHg0ykjS-fBDdhFk4Wv-10">
          <mxGeometry relative="1" as="geometry" />
        </mxCell>
        <mxCell id="hLHg0ykjS-fBDdhFk4Wv-8" value="a" style="shape=parallelogram;perimeter=parallelogramPerimeter;whiteSpace=wrap;html=1;fixedSize=1;fillColor=#f8cecc;strokeColor=#b85450;" vertex="1" parent="1">
          <mxGeometry x="389" y="490" width="49" height="32.5" as="geometry" />
        </mxCell>
        <mxCell id="hLHg0ykjS-fBDdhFk4Wv-13" value="" style="edgeStyle=orthogonalEdgeStyle;rounded=0;orthogonalLoop=1;jettySize=auto;html=1;" edge="1" parent="1" source="hLHg0ykjS-fBDdhFk4Wv-10" target="hLHg0ykjS-fBDdhFk4Wv-12">
          <mxGeometry relative="1" as="geometry" />
        </mxCell>
        <mxCell id="hLHg0ykjS-fBDdhFk4Wv-10" value="&quot;ingresa otro cateto&quot;" style="shape=parallelogram;perimeter=parallelogramPerimeter;whiteSpace=wrap;html=1;fixedSize=1;fillColor=#d5e8d4;strokeColor=#82b366;" vertex="1" parent="1">
          <mxGeometry x="345" y="553" width="136.5" height="31.25" as="geometry" />
        </mxCell>
        <mxCell id="hLHg0ykjS-fBDdhFk4Wv-15" value="" style="edgeStyle=orthogonalEdgeStyle;rounded=0;orthogonalLoop=1;jettySize=auto;html=1;" edge="1" parent="1" source="hLHg0ykjS-fBDdhFk4Wv-12" target="hLHg0ykjS-fBDdhFk4Wv-14">
          <mxGeometry relative="1" as="geometry" />
        </mxCell>
        <mxCell id="hLHg0ykjS-fBDdhFk4Wv-12" value="b" style="shape=parallelogram;perimeter=parallelogramPerimeter;whiteSpace=wrap;html=1;fixedSize=1;fillColor=#f8cecc;strokeColor=#b85450;" vertex="1" parent="1">
          <mxGeometry x="385.75" y="620" width="55" height="31.25" as="geometry" />
        </mxCell>
        <mxCell id="hLHg0ykjS-fBDdhFk4Wv-17" value="" style="edgeStyle=orthogonalEdgeStyle;rounded=0;orthogonalLoop=1;jettySize=auto;html=1;" edge="1" parent="1" source="hLHg0ykjS-fBDdhFk4Wv-14" target="hLHg0ykjS-fBDdhFk4Wv-16">
          <mxGeometry relative="1" as="geometry" />
        </mxCell>
        <mxCell id="hLHg0ykjS-fBDdhFk4Wv-14" value="c=(a^4)+(b^4)" style="whiteSpace=wrap;html=1;fillColor=#ffe6cc;strokeColor=#d79b00;" vertex="1" parent="1">
          <mxGeometry x="370.62" y="690" width="86.75" height="23.13" as="geometry" />
        </mxCell>
        <mxCell id="hLHg0ykjS-fBDdhFk4Wv-19" value="" style="edgeStyle=orthogonalEdgeStyle;rounded=0;orthogonalLoop=1;jettySize=auto;html=1;" edge="1" parent="1" source="hLHg0ykjS-fBDdhFk4Wv-16" target="hLHg0ykjS-fBDdhFk4Wv-18">
          <mxGeometry relative="1" as="geometry" />
        </mxCell>
        <mxCell id="hLHg0ykjS-fBDdhFk4Wv-16" value="h=raiz(c)" style="whiteSpace=wrap;html=1;fillColor=#ffe6cc;strokeColor=#d79b00;" vertex="1" parent="1">
          <mxGeometry x="384.3" y="750" width="59.38" height="23.13" as="geometry" />
        </mxCell>
        <mxCell id="hLHg0ykjS-fBDdhFk4Wv-21" value="" style="edgeStyle=orthogonalEdgeStyle;rounded=0;orthogonalLoop=1;jettySize=auto;html=1;" edge="1" parent="1" source="hLHg0ykjS-fBDdhFk4Wv-18" target="hLHg0ykjS-fBDdhFk4Wv-20">
          <mxGeometry relative="1" as="geometry" />
        </mxCell>
        <mxCell id="hLHg0ykjS-fBDdhFk4Wv-18" value="&quot;tu resultado es&quot;, h" style="shape=parallelogram;perimeter=parallelogramPerimeter;whiteSpace=wrap;html=1;fixedSize=1;fillColor=#d5e8d4;strokeColor=#82b366;" vertex="1" parent="1">
          <mxGeometry x="350.24" y="810" width="126.01" height="25.3" as="geometry" />
        </mxCell>
        <mxCell id="hLHg0ykjS-fBDdhFk4Wv-20" value="FinProceso" style="ellipse;whiteSpace=wrap;html=1;fillColor=#fff2cc;strokeColor=#d6b656;" vertex="1" parent="1">
          <mxGeometry x="375.62" y="870" width="76.76" height="32.05" as="geometry" />
        </mxCell>
      </root>
    </mxGraphModel>
  </diagram>
</mxfile>
